<?xml version="1.0" standalone="no"?>
<!DOCTYPE svg PUBLIC "-//W3C//DTD SVG 20010904//EN"
 "http://www.w3.org/TR/2001/REC-SVG-20010904/DTD/svg10.dtd">
<svg version="1.0" xmlns="http://www.w3.org/2000/svg"
 width="1181.000000pt" height="609.000000pt" viewBox="0 0 1181.000000 609.000000"
 preserveAspectRatio="xMidYMid meet">

<g transform="translate(0.000000,609.000000) scale(0.100000,-0.100000)"
fill="#000000" stroke="none">
<path d="M2030 6080 c-644 -5 -721 -7 -774 -23 -128 -38 -202 -116 -249 -262
-9 -27 -78 -349 -152 -715 -75 -366 -183 -897 -241 -1180 -259 -1263 -284
-1397 -284 -1507 0 -56 5 -125 11 -153 l11 -51 -42 -45 c-73 -80 -84 -117
-201 -686 l-109 -531 0 -375 0 -376 63 -62 c112 -109 -35 -99 1532 -95 748 2
1477 7 1620 11 232 6 266 9 316 29 62 24 127 75 169 133 26 36 28 37 34 15 9
-37 73 -104 124 -129 l47 -23 550 -3 c441 -2 560 0 602 11 51 14 54 13 110
-15 l57 -28 1125 2 c1222 3 1138 0 1223 55 26 17 28 17 50 -4 13 -12 43 -31
68 -42 44 -20 59 -21 1156 -21 1200 0 1164 -2 1245 53 18 12 46 43 61 67 27
45 733 1659 758 1734 33 101 -11 209 -103 252 -50 23 -60 24 -286 24 -182 0
-232 3 -228 13 3 6 165 379 359 827 195 448 360 830 366 849 7 19 12 60 12 91
0 53 27 119 382 936 370 851 382 881 386 952 7 123 -37 197 -139 236 -40 15
-178 16 -1634 14 l-1590 -3 -55 -27 c-30 -15 -157 -109 -282 -208 -124 -99
-228 -180 -231 -180 -3 0 6 26 19 58 17 42 24 77 24 130 0 84 -14 124 -61 169
-64 61 -81 63 -500 63 -356 0 -381 -1 -433 -20 -56 -21 -120 -80 -149 -136
-33 -64 -756 -1742 -767 -1780 -13 -43 -9 -149 8 -240 6 -28 84 -225 175 -437
l165 -386 -175 -403 c-96 -222 -179 -427 -185 -455 -6 -29 -16 -53 -22 -53 -6
0 -35 -11 -63 -25 -39 -18 -60 -36 -82 -70 -16 -25 -119 -255 -228 -510 -109
-255 -199 -460 -201 -455 -2 4 11 87 28 184 28 155 30 181 20 230 -20 96 -95
174 -190 195 -57 13 -1079 14 -1135 1 -22 -5 -41 -8 -42 -6 -2 2 26 144 62
317 373 1796 363 1737 333 1882 -12 54 -12 69 -2 78 25 21 74 107 94 165 29
83 298 1399 306 1492 7 96 -15 213 -53 283 -15 28 -51 72 -80 99 -93 85 -26
80 -1067 78 -507 -2 -1243 -5 -1636 -8z m5677 -191 c34 -13 43 -26 43 -62 0
-21 -277 -679 -308 -732 -7 -13 -52 -47 498 386 261 206 489 383 505 394 29
20 57 20 1565 23 844 1 1549 0 1567 -3 42 -8 63 -29 63 -65 0 -35 -741 -1750
-777 -1798 -22 -30 -23 -34 -9 -54 9 -12 16 -35 16 -51 0 -16 -163 -403 -362
-860 -335 -772 -392 -905 -421 -996 -10 -30 -9 -35 12 -52 22 -18 45 -19 332
-19 296 0 310 -1 329 -20 11 -11 20 -31 20 -45 0 -31 -725 -1703 -754 -1740
-12 -15 -38 -30 -61 -35 -23 -6 -494 -10 -1120 -10 -860 0 -1085 3 -1105 13
-21 11 -25 20 -24 53 1 28 106 280 370 888 300 691 374 853 397 870 27 20 43
21 360 26 183 3 339 9 347 13 13 6 160 347 160 370 0 4 -114 7 -252 7 l-253 0
-156 -123 c-104 -82 -170 -127 -200 -136 -58 -18 -130 -54 -150 -77 -27 -30
-135 -247 -206 -413 -37 -85 -76 -165 -88 -178 -12 -15 -38 -28 -65 -34 -25
-4 -365 -8 -757 -9 -706 0 -712 0 -723 -20 l-11 -21 731 1 c695 2 733 1 752
-17 14 -13 18 -26 15 -48 -5 -30 -377 -894 -446 -1035 -62 -128 78 -115 -1197
-118 l-1105 -2 -24 24 c-14 14 -25 37 -25 52 0 34 185 462 211 489 19 20 35
20 774 23 738 2 755 3 765 22 10 19 2 20 -709 22 -691 3 -720 4 -740 22 -13
12 -21 31 -21 53 0 44 452 1101 481 1126 14 11 39 17 76 17 l54 0 28 63 c16
35 32 74 36 88 4 13 76 186 160 384 85 198 169 397 188 443 l34 83 -176 407
c-138 322 -175 417 -176 454 -1 26 -8 54 -15 63 -11 13 -11 27 -4 63 12 56
736 1730 772 1785 15 23 37 41 56 46 45 13 688 14 723 0z m-3128 -75 c26 -33
36 -82 34 -161 0 -34 -62 -359 -137 -730 -117 -573 -141 -677 -169 -733 -58
-116 62 -104 -1162 -110 l-1059 -5 -13 -60 c-7 -33 -12 -66 -13 -74 0 -12 103
-13 683 -7 375 3 847 7 1049 8 l366 3 25 -24 c34 -31 51 -107 44 -190 -6 -64
-105 -554 -431 -2121 -246 -1184 -243 -1168 -271 -1226 -14 -29 -41 -64 -58
-76 -32 -23 -36 -23 -442 -29 -225 -4 -941 -8 -1589 -9 l-1179 -3 -28 31 c-36
40 -53 124 -46 227 6 82 255 1312 283 1397 17 53 50 85 98 93 17 3 505 9 1085
13 l1054 7 13 55 c7 30 13 63 14 73 0 18 -32 19 -1032 12 l-1033 -7 -27 21
c-18 15 -34 42 -44 78 -31 107 -18 197 131 923 75 366 187 917 250 1225 280
1377 279 1374 334 1398 27 12 778 20 2453 25 l797 2 20 -26z m4537 -3626 c-4
-23 -8 -44 -10 -45 -2 -2 -70 -2 -152 -1 l-148 3 53 43 54 42 105 0 105 0 -7
-42z m-3917 -730 c0 -2 -46 -262 -102 -578 l-102 -575 -518 -3 c-284 -1 -517
1 -517 6 0 4 45 262 100 572 55 311 100 568 100 572 0 5 234 8 520 8 286 0
520 -1 519 -2z"/>
<path d="M8665 5324 c-275 -218 -501 -397 -502 -398 -2 -2 13 -20 33 -42 27
-29 71 -118 171 -349 74 -170 138 -313 141 -317 4 -4 149 320 322 719 375 865
340 783 337 783 -2 0 -228 -178 -502 -396z m-33 -424 c-64 -148 -119 -270
-122 -270 -3 0 -31 60 -62 132 l-57 131 22 17 c12 10 90 72 172 138 83 66 153
121 157 121 3 1 -46 -120 -110 -269z"/>
<path d="M9815 5256 c-8 -18 -75 -174 -150 -346 -74 -172 -135 -314 -135 -316
0 -2 166 -4 369 -4 l368 0 118 273 c65 149 133 307 151 350 l33 77 -370 0
-370 0 -14 -34z m492 -148 c-2 -7 -38 -91 -78 -185 l-73 -173 -189 0 c-147 0
-188 3 -184 13 16 38 150 343 153 349 3 5 89 8 191 8 144 0 184 -3 180 -12z"/>
<path d="M7270 4218 c-151 -121 -281 -223 -289 -227 -11 -7 -9 -15 10 -43 13
-20 53 -106 89 -191 36 -86 69 -157 73 -157 5 0 119 87 253 194 191 151 256
197 292 206 57 16 58 16 44 32 -5 7 -48 101 -95 208 -47 107 -89 195 -94 196
-4 1 -132 -97 -283 -218z m240 -84 c7 -19 10 -37 8 -38 -1 -2 -69 -55 -150
-119 l-148 -117 -15 30 c-8 16 -15 34 -15 39 0 13 280 240 297 240 6 1 17 -15
23 -35z"/>
<path d="M8497 3951 c-5 -24 -102 -105 -569 -475 l-564 -446 -48 -112 c-63
-148 -357 -868 -363 -890 -5 -17 11 -18 244 -18 l250 0 42 31 c23 16 75 58
114 92 94 81 136 115 1302 1037 545 430 997 789 1005 796 12 12 -94 14 -697
14 l-710 0 -6 -29z m891 -184 c-29 -24 -444 -353 -923 -732 -478 -378 -890
-707 -914 -730 -29 -28 -49 -61 -61 -96 l-19 -54 -151 -3 c-142 -2 -152 -1
-146 15 4 10 79 185 167 388 l161 371 527 416 c289 229 537 428 550 442 l24
26 420 0 419 0 -54 -43z"/>
<path d="M9558 2956 c-42 -35 -89 -73 -105 -84 l-28 -21 71 -1 72 0 22 53 c40
92 50 117 48 116 -2 0 -38 -29 -80 -63z"/>
<path d="M9353 2075 c-12 -8 -40 -48 -61 -88 -35 -63 -542 -1225 -542 -1241 0
-3 159 -6 353 -6 l354 0 261 603 c168 385 262 614 262 635 0 40 -23 88 -49
102 -12 6 -123 10 -288 10 -224 0 -272 -3 -290 -15z m453 -172 c-4 -10 -104
-244 -224 -520 l-217 -503 -204 0 c-159 0 -202 3 -198 13 3 6 96 221 207 477
111 256 206 484 213 508 l11 42 209 0 c195 0 209 -1 203 -17z"/>
</g>
</svg>
